<?xml version="1.0" encoding="UTF-8"?>
<svg width="926.37" height="661.91" version="1.1" viewBox="0 0 245.1 175.13" xmlns="http://www.w3.org/2000/svg"><path d="M51.156.007c-3.12.084-6.289.907-9.238 3.006l-.813.576-.445.89c-1.186 2.367-4.047 6.03-5.914 10.311-.934 2.14-1.655 4.554-1.467 7.227.123 1.756.877 3.497 1.906 5.146-10.19 22.98-20.929 45.779-31.42 68.736-2.054 2.529-3.413 5.197-3.701 7.924-.32 3.032.582 5.889 1.998 8.192 2.832 4.605 7.472 7.593 11.541 9.877l.363.203.399.125c55.925 17.551 111.917 34.852 167.763 52.554l.551.176.576.012c1.81.036 5.03.458 8.446-.19 1.708-.323 3.57-.959 5.199-2.332 1.628-1.373 2.822-3.497 3.223-5.857l-.43 1.244c1.558-2.86 4.077-8.702 7.33-16.422 3.253-7.72 7.117-17.12 10.883-26.29 3.766-9.172 7.434-18.113 10.285-24.886 1.426-3.386 2.649-6.234 3.562-8.265.427-.949.772-1.676 1.038-2.213.943.194 2.184.325 3.576.074l1.812-.326.93-1.59c3.298-5.631 5.845-12.232 5.988-18.725.144-6.492-2.917-13.34-9.955-16.302l-.24-.1-.248-.07c-25.478-7.026-50.244-16.98-75.844-25.219-27.6-9.158-55.892-15.136-83.838-21.607l-.261-.06-.268-.026c-3.79-.354-8.835-2.668-14.344-4.371C57.345.577 54.275-.078 51.156.007zm.445 7.888c1.806-.008 3.792.452 6.135 1.176 4.686 1.45 9.994 4.137 15.963 4.694l-.531-.086c28.045 6.494 56.087 12.435 83.123 21.406l.017.006.018.006c25.117 8.082 49.872 18.024 75.793 25.205 4.061 1.743 5.076 4.347 4.98 8.707-.082 3.73-1.704 8.333-3.847 12.57-.736-.195-2.223-.466-3.749.18-1.178.499-1.912 1.33-2.498 2.178-1.047 1.148-.94 1.366-1.296 2.078a74.184 74.184 0 0 0-1.25 2.668c-.965 2.144-2.203 5.026-3.641 8.441-2.876 6.831-6.547 15.782-10.313 24.951-3.765 9.17-7.624 18.558-10.855 26.225-3.23 7.667-5.956 13.815-6.982 15.7l-.32.587-.112.656c-.136.804-.28.902-.494 1.082-.214.18-.696.43-1.531.588-1.543.293-3.98.113-6.272.047-55.514-17.593-111.14-34.788-166.674-52.215-3.481-1.988-6.976-4.624-8.388-6.922-.725-1.178-.966-2.113-.856-3.16.11-1.046.624-2.423 2.293-4.283l.408-.455.252-.555c10.79-23.614 21.919-47.143 32.447-70.982l1.13-2.555-2.01-1.94c-1.04-1.002-1.223-1.607-1.282-2.437-.058-.83.189-2.023.819-3.466 1.118-2.563 3.287-5.578 5.04-8.747 1.435-.883 2.885-1.34 4.483-1.347z"/><path d="M63.142 29.39a8.15 8.15 0 0 0-3.115.992c-1.946 1.108-3.301 2.918-4.246 5L28.589 95.274c-.687 1.515-.897 3.389-.183 5.194.714 1.805 2.422 3.253 4.28 3.84l136.726 43.164c3.77 1.19 8.205-.764 9.746-4.522l26.033-63.484c.764-1.864.79-4.286-.275-6.11-1.066-1.823-2.777-2.785-4.399-3.275l-134.1-40.488-.138-.032a9.493 9.493 0 0 0-3.137-.171zm.844 7.945c.055-.031.075-.06.494.03l132.877 40.118-25.568 62.35-135.256-42.7 26.531-58.445c.482-1.062.863-1.32.922-1.353z"/></svg>
