<?xml version="1.0" encoding="UTF-8"?>
<svg width="896.15" height="631.77" version="1.1" viewBox="0 0 237.1 167.16" xmlns="http://www.w3.org/2000/svg"><path class="cartridge-fill" d="M179.339 167.014c-55.865-17.708-111.861-35.011-167.775-52.56C3.927 110.168-4.97 103.015 3.34 93.76c10.804-23.646 21.925-47.161 32.426-70.937-6.567-6.339 1.472-14.512 4.473-20.499 9.132-6.497 20.076 2.6 29.835 3.511 27.996 6.483 56.162 12.442 83.48 21.506 25.432 8.183 50.26 18.17 76.04 25.28 11.18 4.704 8.15 18.932 2.067 29.32-3.094.556-4.166-1.987-5.696.742-2.144 2.352-28.614 69.793-33.782 79.283-1.073 6.326-8.575 5.134-12.843 5.049z" fill="#008200"/><path d="M59.145 25.441a8.15 8.15 0 0 0-3.116.992c-1.946 1.108-3.3 2.919-4.246 5L24.592 91.326c-.688 1.515-.898 3.388-.184 5.193.714 1.805 2.422 3.254 4.28 3.84l136.726 43.164c3.77 1.19 8.205-.764 9.746-4.521l26.033-63.485c.765-1.863.79-4.286-.275-6.11-1.066-1.823-2.777-2.785-4.398-3.275L62.42 25.644l-.139-.031a9.493 9.493 0 0 0-3.136-.172zm.843 7.945c.055-.03.076-.059.494.03L193.36 73.535l-25.568 62.35-135.256-42.7 26.53-58.445c.483-1.062.863-1.32.922-1.354z" fill="#fff"/></svg>
