<svg xmlns="http://www.w3.org/2000/svg" viewBox="0 0 50 50"><path d="M25 3C12.863 3 3 12.863 3 25s9.863 22 22 22 22-9.863 22-22S37.137 3 25 3zm0 2c5.172 0 9.86 1.973 13.406 5.188L35.594 13A15.97 15.97 0 0 0 25 9c-4.238 0-7.996 1.617-10.844 4.25A2.952 2.952 0 0 0 13 13c-1.645 0-3 1.355-3 3 0 .719.258 1.387.688 1.906C9.57 20.046 9 22.441 9 25c0 7.89 5.684 14.379 13.094 15.688C22.41 42 23.594 43 25 43c1.414 0 2.598-1.016 2.906-2.344C35.363 39.316 41 32.86 41 25a15.97 15.97 0 0 0-4-10.594l2.813-2.812C43.026 15.14 45 19.828 45 25c0 11.059-8.941 20-20 20S5 36.059 5 25 13.941 5 25 5zm0 6c3.523 0 6.703 1.309 9.156 3.438l-2.812 2.843c-.008-.004-.024.004-.032 0C29.587 15.863 27.402 15 25 15c-5.512 0-10 4.488-10 10s4.488 10 10 10a9.97 9.97 0 0 0 7.125-3A2.005 2.005 0 0 0 34 30a1.98 1.98 0 0 0-.063-.531A9.877 9.877 0 0 0 35 25c0-2.402-.863-4.586-2.281-6.313-.004-.007.004-.023 0-.03l2.843-2.813C37.693 18.297 39 21.477 39 25c0 6.852-4.855 12.457-11.313 13.688A3.007 3.007 0 0 0 25 37c-1.184 0-2.203.71-2.688 1.719C15.902 37.527 11 31.887 11 25c0-2.23.484-4.25 1.406-6.063.196.04.387.063.594.063 1.645 0 3-1.355 3-3 0-.508-.148-.984-.375-1.406C18.109 12.348 21.328 11 25 11zm-12 4c.563 0 1 .438 1 1 0 .563-.438 1-1 1-.563 0-1-.438-1-1 0-.563.438-1 1-1zm12 2a7.95 7.95 0 0 1 4.906 1.688l-3.625 3.625A2.953 2.953 0 0 0 25 22c-1.645 0-3 1.355-3 3s1.355 3 3 3 3-1.355 3-3c0-.46-.125-.89-.313-1.281l3.625-3.625A7.95 7.95 0 0 1 33 25a8.046 8.046 0 0 1-.594 3.031A1.991 1.991 0 0 0 32 28a2 2 0 0 0-2 2c0 .363.11.707.281 1A7.95 7.95 0 0 1 25 33c-4.43 0-8-3.57-8-8s3.57-8 8-8zm0 7c.563 0 1 .438 1 1 0 .563-.438 1-1 1-.563 0-1-.438-1-1 0-.563.438-1 1-1zm0 15c.563 0 1 .438 1 1 0 .563-.438 1-1 1-.563 0-1-.438-1-1 0-.563.438-1 1-1z"/></svg>