<svg xmlns="http://www.w3.org/2000/svg" viewBox="0 0 50 50"><path d="M25 3C12.867 3 3 12.867 3 25s9.867 22 22 22 22-9.867 22-22a21.88 21.88 0 0 0-5.75-14.813l-4.281 4.25C39.46 17.258 41 20.95 41 25c0 7.691-5.594 14.29-13.094 15.656C27.602 41.992 26.426 43 25 43a2.99 2.99 0 0 1-2.906-2.313C14.598 39.355 9 32.724 9 25c0-2.602.578-4.996 1.688-7.125A2.97 2.97 0 0 1 10 16c0-1.652 1.348-3 3-3 .418 0 .824.094 1.188.25C17.151 10.52 20.968 9 25 9c4.05 0 7.742 1.54 10.563 4.031l4.25-4.281A21.88 21.88 0 0 0 25 3zm0 8c-3.531 0-6.738 1.266-9.344 3.625.219.418.344.871.344 1.375 0 1.652-1.348 3-3 3-.203 0-.402-.023-.594-.063C11.488 20.747 11 22.777 11 25c0 6.71 4.824 12.473 11.313 13.688A2.994 2.994 0 0 1 25 37c1.176 0 2.195.7 2.688 1.688C34.188 37.444 39 31.688 39 25c0-3.5-1.305-6.7-3.438-9.156l-2.812 2.844A9.914 9.914 0 0 1 35 25a9.95 9.95 0 0 1-1.156 4.656c.093.266.156.547.156.844 0 1.383-1.117 2.5-2.5 2.5-.156 0-.32-.035-.469-.063C29.351 34.215 27.27 35 25 35c-5.516 0-10-4.484-10-10s4.484-10 10-10c2.398 0 4.59.84 6.313 2.25l2.843-2.813C31.7 12.306 28.5 11 25 11zm-12 4c-.55 0-1 .45-1 1s.45 1 1 1 1-.45 1-1-.45-1-1-1zm12 2c-4.41 0-8 3.59-8 8s3.59 8 8 8a7.985 7.985 0 0 0 4.344-1.281C29.14 31.355 29 30.945 29 30.5c0-1.383 1.117-2.5 2.5-2.5.3 0 .578.063.844.156a7.95 7.95 0 0 0-1.032-8.062L26.938 24.5A1.999 1.999 0 0 1 25 27a2 2 0 1 1 .001-4c.219 0 .43.031.625.094l4.281-4.407A7.967 7.967 0 0 0 25 17zm0 22c-.55 0-1 .45-1 1s.45 1 1 1 1-.45 1-1-.45-1-1-1z"/></svg>