<?xml version="1.0" encoding="UTF-8"?>
<svg version="1.1" viewBox="0 0 50 50" xmlns="http://www.w3.org/2000/svg"><path d="M44 3a2 2 0 0 0-1.938 1.5l-30.624 8.344c-.008-.004-.024.004-.032 0A3.874 3.874 0 0 0 9 12c-1.852 0-3.398 1.281-3.844 3H2c-1.094 0-2 .906-2 2v28c0 1.094.906 2 2 2h46c1.094 0 2-.906 2-2V17c0-1.094-.906-2-2-2H12.844c-.04-.152-.102-.293-.156-.438l29.906-8.156C42.957 6.77 43.449 7 44 7a1.999 1.999 0 1 0 0-4zM9 14c.746 0 1.375.402 1.719 1H7.28c.344-.598.973-1 1.719-1zm-7 3h46v28H2zm32 3c-3.93 0-7.367 2.074-9.313 5.188-.003.003-.027-.004-.03 0a.999.999 0 0 0-.376.687.88.88 0 0 0-.031.094 10.988 10.988 0 0 0-1.219 4.625v.031a1.022 1.022 0 0 0 0 .75 10.96 10.96 0 0 0 1.188 4.563c.004.007-.004.023 0 .03-.02.391.187.755.531.938h.031C26.734 39.953 30.117 42 34 42c5.973 0 10.816-4.79 10.969-10.719A.466.466 0 0 0 45 31.22v-.032A.753.753 0 0 0 45 31v-.125a1.044 1.044 0 0 0-.031-.188C44.8 24.77 39.96 20 34 20zm0 2c2.672 0 5.043 1.164 6.688 3H27.312A8.942 8.942 0 0 1 34 22zM9 23a1.999 1.999 0 1 0 0 4 1.999 1.999 0 1 0 0-4zm16.969 4H42.03c.465.93.82 1.918.938 3H25.03c.117-1.082.473-2.07.938-3zM9 30a1.999 1.999 0 1 0 0 4 1.999 1.999 0 1 0 0-4zm16.031 2H42.97a8.918 8.918 0 0 1-.875 3H25.937c-.457-.922-.789-1.93-.906-3zm2.219 5h13.5A9.037 9.037 0 0 1 34 40a9.043 9.043 0 0 1-6.75-3z"/></svg>
