<?xml version="1.0" encoding="UTF-8"?>
<svg version="1.1" viewBox="0 0 50 50" xmlns="http://www.w3.org/2000/svg"><defs><linearGradient id="gradient-diamond-pearl" x2="50" y1="47" y2="25" gradientUnits="userSpaceOnUse"><stop stop-color="#4f84ff" offset="0"/><stop stop-color="#ffa1fa" offset="1"/></linearGradient></defs><path d="M44 3a2 2 0 0 0-1.938 1.5l-28.406 7.75c.43.531.77 1.121 1 1.781l27.938-7.625C42.957 6.77 43.449 7 44 7a1.999 1.999 0 1 0 0-4zM9 12c-1.86 0-3.398 1.277-3.844 3H2c-1.102 0-2 .898-2 2v28c0 1.102.898 2 2 2h46c1.102 0 2-.898 2-2V17c0-1.102-.898-2-2-2H12.844c-.446-1.723-1.985-3-3.844-3zm25 9a9.962 9.962 0 0 1 8 4H26a9.967 9.967 0 0 1 8-4zM9 23c1.105 0 2 .89 2 2 0 1.11-.895 2-2 2s-2-.89-2-2c0-1.11.895-2 2-2zm15.813 4h18.375c.406.93.644 1.945.75 3H24.061c.106-1.055.344-2.07.75-3zM9 30c1.105 0 2 .89 2 2 0 1.11-.895 2-2 2s-2-.89-2-2c0-1.11.895-2 2-2zm15.063 2h19.875c-.106 1.055-.344 2.07-.75 3H24.811c-.406-.93-.644-1.945-.75-3zM26 37h16a9.962 9.962 0 0 1-8 4 9.967 9.967 0 0 1-8-4z" fill="url(#gradient-diamond-pearl)"/></svg>
