<svg xmlns="http://www.w3.org/2000/svg" viewBox="0 0 50 50"><path d="M34.969 1a1.028 1.028 0 0 0-.782.188c-2.593 1.945-3.808 3.37-5.124 5.53-1.532-1.327-3.079-2.183-4.72-2.593a.983.983 0 0 0-.78.125c-.235.152-.391.41-.438.688-.309 1.847-.406 4.296-.5 6.656-.066 1.648-.164 3.765-.344 4.906-.281-.305-.613-.715-.906-1.063-1.645-1.937-4.125-4.843-7.281-5.124-.535-.047-1.02.316-1.094.843-.203 1.41-.238 2.739-.125 3.875-.414-.16-.879-.36-1.281-.531-1.637-.703-3.508-1.5-5-1.5a1.03 1.03 0 0 0-.75.344.964.964 0 0 0-.25.75c.18 1.738 1.023 3.664 1.687 5.219.293.683.692 1.625.75 1.968-.316.758-1.894 1.149-3.406 1.438-.32.062-.617.265-.75.562-.133.297-.102.657.063.938 1.863 3.148 4.863 4.758 7.25 5.812-1.442.348-2.91 1.184-3.813 3.157a.987.987 0 0 0 0 .78c.102.255.309.462.563.563 1.792.719 1.742.836 1.218 2.219-.176.469-.379.996-.531 1.625a.998.998 0 0 0 .313.969.953.953 0 0 0 .968.218c1.516-.507 3.836-.144 5.656.75 6.122-6.05 12.489-15.453 14.657-23.562.144-.535.722-.86 1.25-.719a.98.98 0 0 1 .687 1.219c-2.25 8.418-8.636 17.93-14.937 24.219 1.508 1.55 2.715 4.246 2.781 5.093.027.34.23.653.531.813.149.078.305.125.469.125a.96.96 0 0 0 .469-.125c2.035-1.117 2.754-2.945 3.218-4.156.07-.188.145-.407.22-.594.034.047.058.11.093.156a35.1 35.1 0 0 0 2.25 2.875c.2.23.477.364.781.344.305-.016.602-.16.782-.406 1.98-2.758 1.476-4.942.843-6.438.473.242.95.516 1.469.813 1.84 1.047 4.16 2.351 7.313 2.906.5.09 1.007-.3 1.156-.781.3-.973.773-2.555.343-4.407 1.262.454 2.891.97 4.72.97a8.84 8.84 0 0 0 2.28-.282c.454-.117.77-.559.75-1.031-.148-3.403-2.296-5.203-3.718-6.407-.196-.164-.426-.347-.625-.53.812-.493 1.883-1.177 2.843-2.063.364-.336.403-.903.126-1.313-1.91-2.828-5.684-3.422-8.188-3.812-.336-.051-.719-.098-1.031-.157.27-.347.676-.804 1.031-1.218 1.66-1.926 4.168-4.844 6.188-9.125a.95.95 0 0 0-.032-.875.994.994 0 0 0-.718-.531c-.383-.06-.739-.13-1.063-.188-1.184-.21-2.379-.371-4.219-.219-.062-2.96-.465-6.281-2.656-9.469A.993.993 0 0 0 34.969 1zm-17.75 40.469a5.886 5.886 0 0 0-.625-.563c-.32-.222-.66-.41-1.032-.593-2.714 2.683-5.378 4.695-7.593 5.656-.992.433-2.395.832-3.313.343a.986.986 0 0 0-1.343.407 1.022 1.022 0 0 0 .406 1.375c.574.308 1.219.437 1.937.437.914 0 1.957-.226 3.094-.718 2.5-1.086 5.477-3.356 8.469-6.344z"/></svg>