<svg xmlns="http://www.w3.org/2000/svg" viewBox="0 0 50 50"><path d="M25 0c-.563 0-1 .438-1 1v2.063c-7.11.6-21.32 7.108-23.656 15.874.761.82 1.398 1.184 1.406 1.188.04.02 2.04 1.063 3.656 1.063 1.383 0 3.492-.786 4.188-1.094.008-.004.023.004.031 0C10.793 9.676 21.219 4.539 24 3.344c.36-.153.59-.258.656-.281.035-.016.059-.02.094-.032.07-.02.148-.027.219-.031.05 0 .105.023.156.031.047.008.078-.015.125 0 .02.004.297.086.75.25 2.895 1.031 13.332 5.524 14.406 16.813.012.004.02-.004.032 0 .023.011 2.308 1.093 4.25 1.093 1.855 0 3.453-1.019 3.468-1.03.02-.012.742-.497 1.5-1.22C47.324 10.172 33.11 3.665 26 3.063V1c0-.563-.438-1-1-1zm-.063 5.469c-1.175 1.445-3.605 5.543-3.906 14.875.801.324 2.332.843 3.875.843 1.567 0 3.2-.515 4.063-.843-.332-8.848-2.848-13.274-4.032-14.875zm2.813.718c1.379 2.579 2.965 7.043 3.219 14.157.734.316 2.226.843 3.937.843 1.375 0 2.657-.32 3.532-.625-.66-8.226-6.856-12.503-10.688-14.375zm-5.906.5c-3.856 2.27-9.598 6.81-10.282 13.907.82.289 2.051.593 3.532.593 1.879 0 3.273-.503 3.937-.812.211-6.82 1.532-11.11 2.813-13.688zM50 21.313c-.418.325-.719.512-.75.532-.07.047-2.086 1.343-4.563 1.343-1.851 0-3.828-.73-4.687-1.093-.863.367-2.867 1.093-5.094 1.093-2.21 0-4.105-.714-4.937-1.093-.895.36-2.985 1.093-5.063 1.093-2.039 0-3.996-.69-4.875-1.062-.812.395-2.566 1.063-4.937 1.063-2.422 0-4.293-.711-5.125-1.094-.89.36-2.942 1.093-4.563 1.093-2.129 0-4.496-1.257-4.593-1.312-.016-.008-.34-.168-.813-.531v.062C0 24.496 2.613 27 5.813 27c1.769 0 3.535-.992 4.625-2.344C11.383 26.121 12.992 27 15 27c2.316 0 3.941-1.113 4.906-2.5.969 1.176 2.567 2.078 4.094 2.375v15.938c0 .085.012.167.031.25-3.222.328-5.625 2.124-5.625 2.124a1.006 1.006 0 1 0 1.188 1.626S22.105 45 25 45c2.895 0 5.406 1.813 5.406 1.813a1.006 1.006 0 1 0 1.188-1.626s-2.403-1.796-5.625-2.124c.02-.083.031-.165.031-.25V26.874c1.496-.29 2.977-1.137 3.938-2.219C30.883 26.133 32.483 27 34.5 27c2.309 0 3.938-1.09 4.906-2.469C40.453 25.973 42.27 27 44.188 27 47.386 27 50 24.496 50 21.406v-.093zM10 41c-.55 0-1 .45-1 1s.45 1 1 1 1-.45 1-1-.45-1-1-1zm6 0c-.55 0-1 .45-1 1s.45 1 1 1 1-.45 1-1-.45-1-1-1zm18 0c-.55 0-1 .45-1 1s.45 1 1 1 1-.45 1-1-.45-1-1-1zm6 0c-.55 0-1 .45-1 1s.45 1 1 1 1-.45 1-1-.45-1-1-1zM7 44c-.55 0-1 .45-1 1s.45 1 1 1 1-.45 1-1-.45-1-1-1zm6 0c-.55 0-1 .45-1 1s.45 1 1 1 1-.45 1-1-.45-1-1-1zm24 0c-.55 0-1 .45-1 1s.45 1 1 1 1-.45 1-1-.45-1-1-1zm6 0c-.55 0-1 .45-1 1s.45 1 1 1 1-.45 1-1-.45-1-1-1zm-33 3c-.55 0-1 .45-1 1s.45 1 1 1 1-.45 1-1-.45-1-1-1zm6 0c-.55 0-1 .45-1 1s.45 1 1 1 1-.45 1-1-.45-1-1-1zm6 0c-.55 0-1 .45-1 1s.45 1 1 1 1-.45 1-1-.45-1-1-1zm6 0c-.55 0-1 .45-1 1s.45 1 1 1 1-.45 1-1-.45-1-1-1zm6 0c-.55 0-1 .45-1 1s.45 1 1 1 1-.45 1-1-.45-1-1-1zm6 0c-.55 0-1 .45-1 1s.45 1 1 1 1-.45 1-1-.45-1-1-1z"/></svg>