<svg xmlns="http://www.w3.org/2000/svg" viewBox="0 0 50 50"><path d="M36.5.031c-.3 0-.59.098-.781.344L32.906 4H28a1 1 0 0 0-1 1v4.906l-3.625 2.813A.975.975 0 0 0 23 13.5c0 .309.133.59.375.781L27 17.094V22a1 1 0 0 0 1 1h4.906l2.813 3.625A.964.964 0 0 0 36.5 27a.964.964 0 0 0 .781-.375L40.094 23H45a1 1 0 0 0 1-1v-4.906l3.625-2.813A.964.964 0 0 0 50 13.5a.97.97 0 0 0-.375-.781L46 9.906V5a1 1 0 0 0-1-1h-4.906L37.28.375c-.191-.246-.48-.344-.781-.344zM36.5 8a5.5 5.5 0 1 1-.001 11.001A5.5 5.5 0 0 1 36.5 8zM11.094 27c-2.723 0-6.211.852-10.375 2.563-.34.14-.586.48-.625.843-.04.364.133.7.437.907.828.57 1.403 2.343 2 4.218C3.801 39.523 5.527 45 12 45c3.016 0 5.586-1.172 7.063-3.188.238-.324.433-.656.593-1-2.46-3.824-6.742-6.574-12.343-7.718a1.007 1.007 0 0 1-.782-1.188.978.978 0 0 1 1.157-.781c5.609 1.145 10.027 3.77 12.843 7.438 1.086-.688 1.782-1.946 1.782-3.47 0-3.363-3.493-8.093-11.22-8.093zm9.437 11.563c-.136.085-.258.183-.406.25.012.652-.16 1.332-.469 2C21.18 43.18 22 45.953 22 49a1 1 0 1 0 2 0c0-.55-.047-1.09-.094-1.625A.949.949 0 0 0 24 47c0-2.332.61-4.469 1.688-6.188-.301-1.05-.305-2.14.03-3-.034-.03-.058-.058-.093-.093-1.29 1.265-2.262 2.875-2.875 4.687a16.461 16.461 0 0 0-2.219-3.843zm5.094-.844c.207-.2.402-.41.625-.594 2.727-2.262 6.484-3.04 10.844-2.219.543.102.883.645.781 1.188a.975.975 0 0 1-1.156.781c-3.758-.707-6.934-.09-9.188 1.781-.722.598-1.332 1.34-1.843 2.157.074.265.132.523.25.78.937 2.071 2.96 3.313 5.406 3.313h.156c4.867 0 7.559-3.535 9.344-5.875.636-.828 1.23-1.617 1.656-1.875.246-.148.418-.433.469-.718.05-.286-.07-.618-.25-.844-2.16-2.672-4.602-5.688-11.719-5.688-2.738 0-6.813 1.89-6.813 4.5 0 1.524.68 2.555 1.438 3.313z"/></svg>