<svg xmlns="http://www.w3.org/2000/svg" viewBox="0 0 50 50"><path d="M32 14c-.586 0-1.094.223-1.469.645-.644.726-.726 1.843-.652 2.972-1.465-.441-4.332-1.262-9.637-2.586-7.734-1.933-12.758-1.039-16.02 2.942-.468-.285-1.667-1.102-2.327-2.422a1.004 1.004 0 0 0-1.75-.094c-.188.3-.2.676-.04.992.852 1.7 2.247 2.719 2.973 3.164-4.785 9.617-2.094 15.86-.707 18.098C2.797 38.398 3.902 40 5 40c1.063 0 1.598-.957 2.074-1.8.367-.65.781-1.388 1.34-1.645 4.574-2.094 11.918-2.078 18.27.039 1.277.426 2.355 1.113 3.394 1.777C31.391 39.211 32.628 40 34 40c.344 0 .664-.14.906-.395.457-.484.602-1.312.516-2.964a3.47 3.47 0 0 1 .215-1.364c-3.782-.07-8.282-1.39-9.602-6.004a1.007 1.007 0 0 1 .692-1.238 1.012 1.012 0 0 1 1.238.692c1.37 4.804 7.379 4.687 9.805 4.433.117-.043.23-.09.351-.117 1.95-.48 3.348-.844 4.16-1.082 2.657-.781 4.578-2.227 5.485-3.32.78-.938 1.64-2.348 1.675-2.407l.645-2.468-.297-.38c-.082-.105-2.062-2.605-6.426-4.316-3.437-1.351-5.992-1.86-6.89-2.008C35 15.614 33.109 14 32 14zm5.332 7.168a1.671 1.671 0 1 1 .001 3.345 1.671 1.671 0 0 1-.001-3.345z"/></svg>