<svg xmlns="http://www.w3.org/2000/svg" viewBox="0 0 50 50"><path d="M32 14c-.824 0-1.559.605-1.832 1.215-.273.605-.313 1.215-.309 1.785 0 .242.028.41.043.625-.277-.082-.433-.133-.836-.25-1.628-.477-4.355-1.23-8.824-2.344-4.086-1.023-7.484-1.312-10.351-.629-2.278.543-4.176 1.75-5.672 3.567-.469-.285-1.668-1.102-2.324-2.418a1.004 1.004 0 0 0-1.75-.094c-.188.3-.2.676-.04.992.852 1.7 2.247 2.719 2.973 3.164C.012 25.773-.023 30.785.91 34.262c.469 1.742 1.172 3.093 1.856 4.043.343.472.68.843 1.004 1.129.324.28.523.566 1.23.566.684 0 1.168-.441 1.45-.8.28-.364.48-.743.683-1.106.414-.73.844-1.336 1.281-1.54 4.356-1.992 11.805-2.117 18.27.04 1.359.453 2.53 1.23 3.668 1.953C31.488 39.27 32.609 40 34 40c.527 0 .973-.41 1.133-.71.16-.302.21-.56.25-.837.078-.547.074-1.16.039-1.808a3.522 3.522 0 0 1 2.7-3.602c1.554-.383 3.183-.797 4.16-1.086 2.722-.8 4.573-2.223 5.484-3.316.832-1 1.675-2.407 1.675-2.407l.086-.136.555-2.332-.293-.38s-2.055-2.6-6.426-4.32c-3.89-1.527-6.437-1.921-6.89-1.988-.176-.176-.664-.668-1.446-1.34a16.191 16.191 0 0 0-1.425-1.101C33.122 14.317 32.75 14 32 14zm-18.652 2.035c1.836.012 3.964.324 6.41.934 4.449 1.113 7.148 1.86 8.75 2.328.8.234 1.328.394 1.664.5l.39.125c.051.012.09.027.141.039.055.012.07.039.297.039l.434-.098.175-.109a.961.961 0 0 0 .133-.121.92.92 0 0 0 .219-.371c.059-.176.05-.242.055-.305.004-.121-.004-.183-.012-.258-.012-.144-.031-.3-.055-.484a11.11 11.11 0 0 1-.09-1.254c-.004-.426.067-.805.13-.953.1.043.296.117.503.254.363.242.813.597 1.23.96a32.32 32.32 0 0 1 1.571 1.446l.238.242.34.043s2.703.344 6.766 1.942c3.468 1.363 4.906 2.96 5.258 3.378l-.235.989c-.078.125-.808 1.312-1.426 2.058-.574.688-2.191 2-4.515 2.684-.813.238-2.29.61-3.7.957a.989.989 0 0 0-.335.05s-2.133.7-4.434.7c-1.148 0-2.313-.18-3.238-.645-.93-.464-1.64-1.16-2.063-2.421a1.001 1.001 0 1 0-1.898.632c.578 1.739 1.742 2.918 3.062 3.579 1.325.66 2.785.855 4.137.855.316 0 .625-.016.926-.031a5.445 5.445 0 0 0-.754 3.031c.023.406.004.691-.012.988-.558-.148-1.133-.34-1.984-.879-1.106-.703-2.434-1.601-4.11-2.16-6.906-2.304-14.656-2.285-19.73.035-1.191.547-1.762 1.618-2.195 2.375-.172.309-.301.52-.414.692a4.395 4.395 0 0 1-.586-.668c-.536-.738-1.145-1.887-1.551-3.395-.809-3.004-.844-7.457 2.035-13.246 1.387-2.297 3.105-3.578 5.484-4.144.895-.215 1.887-.317 2.989-.313zm23.984 5.133c-.012 0-.02.004-.031.004-.09 0-.18.008-.27.027-.031.004-.054.012-.082.02a1.163 1.163 0 0 0-.312.105 2.002 2.002 0 0 0-.223.117c-.016.012-.027.024-.039.032a1.398 1.398 0 0 0-.234.199c-.075.07-.137.152-.192.234-.062.09-.113.184-.156.282a1.747 1.747 0 0 0-.133.652v.004c0 .105.012.21.031.316l.012.043a1.75 1.75 0 0 0 .098.305c.043.094.09.18.144.262.004.007.004.011.008.011.059.086.121.164.192.235.007.007.011.015.02.02a1.568 1.568 0 0 0 .519.343 1.582 1.582 0 0 0 .968.101l.047-.011c.09-.02.18-.047.27-.082.011-.004.023-.012.031-.016.094-.039.18-.086.262-.14.004-.004.008-.008.015-.012.082-.055.16-.121.235-.192l.015-.015c.07-.075.137-.153.192-.235.058-.09.113-.187.156-.285v-.004c.04-.093.07-.191.09-.293.004-.004.004-.011.004-.02.004 0 0 0 0-.003.004 0 .004-.004.004-.004.023-.11.03-.219.03-.324.005-.004 0-.004 0-.004.005 0 .005 0 0 0 0-.11-.01-.211-.03-.317l-.012-.054a1.563 1.563 0 0 0-.082-.262c-.008-.016-.016-.027-.02-.047a2.095 2.095 0 0 0-.132-.242.209.209 0 0 0-.024-.031 1.466 1.466 0 0 0-.183-.223l-.02-.02a1.984 1.984 0 0 0-.223-.183l-.035-.023a2.047 2.047 0 0 0-.226-.125c-.024-.008-.047-.02-.075-.028-.07-.027-.14-.05-.218-.066a1.937 1.937 0 0 0-.352-.047c-.016 0-.027-.004-.039-.004z"/></svg>