<svg xmlns="http://www.w3.org/2000/svg" viewBox="0 0 50 50"><path d="M16 6c-.55 0-1 .45-1 1v1h-1c-.55 0-1 .45-1 1s.45 1 1 1h1v1c0 .55.45 1 1 1s1-.45 1-1v-1h1c.55 0 1-.45 1-1s-.45-1-1-1h-1V7c0-.55-.45-1-1-1zm12.313 6.969L27 13.156c-6.844.98-12 6.93-12 13.844 0 7.719 6.281 14 14 14 6.91 0 12.863-5.156 13.844-12l.187-1.313-1.312.188A11.89 11.89 0 0 1 40 28c-6.617 0-12-5.383-12-12 0-.512.031-1.063.125-1.719zM8 18c-.55 0-1 .45-1 1-.55 0-1 .45-1 1s.45 1 1 1c0 .55.45 1 1 1s1-.45 1-1c.55 0 1-.45 1-1s-.45-1-1-1c0-.55-.45-1-1-1z"/></svg>