<svg xmlns="http://www.w3.org/2000/svg" viewBox="0 0 50 50"><path d="M25 .094l-.719.687-6.875 6.907a1.004 1.004 0 0 0-.347 1.003 1.002 1.002 0 0 0 1.753.403L24 3.938V20c-.004.36.184.695.496.879.313.18.695.18 1.008 0 .312-.184.5-.52.496-.879V3.937l5.188 5.157a1.002 1.002 0 0 0 1.753-.403 1.004 1.004 0 0 0-.347-1.004L25.719.782zm-.094 27.875c-.043.008-.086.02-.125.031A1.002 1.002 0 0 0 24 29v6c-.004.36.184.695.496.879.313.18.695.18 1.008 0 .312-.184.5-.52.496-.879v-6a1 1 0 0 0-1.094-1.031zm-14.125 5.906a.999.999 0 0 0-.594 1.719l4.22 4.218c.241.297.628.434 1.003.348.371-.086.664-.379.75-.75a1.004 1.004 0 0 0-.348-1.004l-4.218-4.218a1 1 0 0 0-.719-.313h-.094zm28.219 0a1.005 1.005 0 0 0-.594.313l-4.218 4.218a1.004 1.004 0 0 0-.348 1.004c.086.371.379.664.75.75.375.086.762-.05 1.004-.347l4.218-4.22a1.002 1.002 0 0 0-.719-1.719l-.093.001zM25 39c-5.176 0-9.434 3.953-9.938 9H1a1 1 0 1 0 0 2h48c.555 0 1-.445 1-1 0-.555-.445-1-1-1H34.937c-.503-5.047-4.761-9-9.937-9z"/></svg>