<?xml version="1.0" encoding="UTF-8" standalone="no"?>
<svg
        xmlns:dc="http://purl.org/dc/elements/1.1/"
        xmlns:cc="http://creativecommons.org/ns#"
        xmlns:rdf="http://www.w3.org/1999/02/22-rdf-syntax-ns#"
        xmlns="http://www.w3.org/2000/svg"
        id="svg8"
        version="1.1"
        viewBox="0 0 22.942984 43.123348"
        height="43.123348mm"
        width="22.942984mm">
    <defs
            id="defs2"/>
    <metadata
            id="metadata5">
        <rdf:RDF>
            <cc:Work
                    rdf:about="">
                <dc:format>image/svg+xml</dc:format>
                <dc:type
                        rdf:resource="http://purl.org/dc/dcmitype/StillImage"/>
                <dc:title></dc:title>
            </cc:Work>
        </rdf:RDF>
    </metadata>
    <g
            transform="translate(-68.984155,-134.19988)"
            id="layer1">
        <path
                id="path985"
                transform="matrix(0.26458333,0,0,0.26458333,68.984155,134.19988)"
                d="M 15.023438 0 L 15.023438 87.869141 L 0 87.869141 L 0 102.89258 L 15.023438 102.89258 L 15.023438 125.42773 L 0 125.42773 L 0 140.45117 L 15.023438 140.45117 L 15.023438 162.98633 L 30.044922 162.98633 L 30.044922 140.45117 L 60.091797 140.45117 L 60.091797 125.42773 L 30.044922 125.42773 L 30.044922 102.89258 L 60.091797 102.89258 L 60.091797 87.869141 L 30.044922 87.869141 L 30.044922 65.333984 L 48.935547 65.333984 C 61.379702 65.333984 70.775082 62.57794 77.121094 57.066406 C 83.516701 51.554872 86.712891 43.409996 86.712891 32.630859 C 86.712891 21.949196 83.516701 13.851378 77.121094 8.3398438 C 70.775082 2.779554 61.379702 0 48.935547 0 L 15.023438 0 z M 30.044922 12.144531 L 48.935547 12.144531 C 55.926078 12.144531 61.328957 13.925786 65.146484 17.486328 C 68.964011 21.04687 70.873047 26.095036 70.873047 32.630859 C 70.873047 39.215401 68.964011 44.287077 65.146484 47.847656 C 61.328957 51.40816 55.926078 53.189453 48.935547 53.189453 L 30.044922 53.189453 L 30.044922 12.144531 z "
                style="font-style:normal;font-weight:normal;font-size:medium;line-height:1.25;font-family:sans-serif;letter-spacing:0px;word-spacing:0px;fill:#000000;fill-opacity:1;stroke:none;stroke-width:3.7766242"/>
    </g>
</svg>
