<?xml version="1.0" encoding="UTF-8" standalone="no"?>
<svg
   xmlns:dc="http://purl.org/dc/elements/1.1/"
   xmlns:cc="http://creativecommons.org/ns#"
   xmlns:rdf="http://www.w3.org/1999/02/22-rdf-syntax-ns#"
   xmlns:svg="http://www.w3.org/2000/svg"
   xmlns="http://www.w3.org/2000/svg"
   version="1.1"
   width="500"
   height="500"
   viewBox="0 0 500 500"
   id="svg134">
  <metadata
     id="metadata7">
    <rdf:RDF>
      <cc:Work
         rdf:about="">
        <dc:format>image/svg+xml</dc:format>
        <dc:type
           rdf:resource="http://purl.org/dc/dcmitype/StillImage" />
        <dc:title></dc:title>
      </cc:Work>
    </rdf:RDF>
  </metadata>
  <defs
     id="defs138" />
  <path
     style="fill:#e3350f;fill-opacity:1;stroke-width:0.65527302"
     d="m 2.0674565,160.6705 c -1.4416021,-0.0437 -2.12870129,0.56821 -2.06317529,1.83507 0.065516,1.17949 0.75262519,2.67607 2.06317529,4.48899 3.1453079,4.36849 7.0779665,7.43685 11.7959385,9.20609 1.834758,0.69896 9.053774,2.88263 21.656857,6.55216 l 28.929205,8.42054 -15.366122,-0.91753 -17.397248,-0.52412 -5.699983,0.13199 c -1.943978,-0.0437 -2.752181,0.61155 -2.424541,1.96578 0.305798,1.26686 1.484956,2.82845 3.538144,4.68505 5.02376,4.58691 10.528203,7.34933 16.513031,8.28856 l 13.859104,2.06445 10.778463,1.80175 c -4.936392,0.45869 -8.626841,0.90613 -11.073195,1.34298 -4.390332,0.76448 -6.508996,1.86843 -6.356102,3.31003 0.196588,1.76925 1.91115,3.74513 5.143826,5.92937 3.341896,2.27162 6.639718,3.55022 9.894246,3.83416 4.302954,0.37133 16.752335,0.37133 37.34975,0 -7.86328,1.50713 -13.552556,2.67481 -17.069198,3.50482 -6.00666,1.4416 -9.402637,2.67557 -10.188969,3.70218 -0.43685,0.5679 -0.197197,1.44239 0.720187,2.62187 0.8737,1.13582 2.195635,2.30478 3.964867,3.50612 4.302964,2.92688 8.595102,4.45532 12.876224,4.58638 l 20.771359,-1.14692 -6.65084,2.06445 -3.40743,1.24431 c -0.78633,0.24027 -1.05913,0.56789 -0.81886,0.98289 0.24027,0.39316 1.07015,0.9719 2.4899,1.73639 l 6.38942,3.31004 c 3.07977,1.4416 5.3068,2.20518 6.68286,2.29255 1.28871,0.0655 2.90512,-0.20726 4.84909,-0.81886 l 4.61971,-1.40833 c -1.04844,0.61159 -1.87831,1.12532 -2.4899,1.54032 -1.15765,0.78633 -1.56175,1.35361 -1.21228,1.70308 1.31055,1.31055 3.30939,2.70896 5.996,4.19426 4.08455,2.29345 7.55701,3.14499 10.41837,2.55525 4.30296,-0.85185 9.82907,-2.19546 16.57839,-4.03023 -1.52897,0.91739 -2.76295,1.76892 -3.70218,2.55526 -1.26685,1.02659 -1.82393,1.80293 -1.67104,2.32714 0.15291,0.61161 2.16321,1.31016 6.02934,2.09648 3.84426,0.80819 6.22425,1.02617 7.14162,0.65484 l 16.18627,-6.25742 c -1.22318,0.89554 -2.39214,1.85672 -3.50611,2.88331 l -2.39251,2.29383 c -1.22318,1.17949 -0.16384,2.41347 3.17805,3.70216 3.27637,1.24504 5.61429,1.60451 7.01221,1.08029 l 8.12581,-3.30875 -1.80304,2.03113 c -0.65527,0.93922 -0.66546,1.55111 -0.032,1.83506 0.91738,0.415 2.96975,0.8191 6.15874,1.21227 1.66166,0.19981 3.04903,0.30808 4.18914,0.33575 -1.52483,0.70472 -2.98853,1.30657 -4.3852,1.79406 -8.45302,2.94873 -27.83841,10.97594 -58.15572,24.0814 -29.8586,12.93072 -51.417469,22.59601 -64.675823,28.99584 -3.953482,1.90029 -5.656569,3.32038 -5.110509,4.25962 0.54606,0.93921 2.829173,0.88439 6.848181,-0.16404 L 138.56202,308.0089 c 37.6782,-12.03519 57.55438,-17.93226 59.62941,-17.69199 0.50237,0.0655 0.79684,0.26183 0.88421,0.58947 0.10921,0.32764 -0.0654,0.63358 -0.52412,0.91753 l -53.20796,44.00187 c -2.31529,1.94399 -3.14517,3.07852 -2.48989,3.40616 0.61158,0.32763 2.30448,-0.15167 5.07846,-1.44038 10.41885,-5.43877 24.26665,-13.00834 41.54401,-22.70638 9.84049,-5.52425 16.90012,-9.54022 21.78116,-12.37388 1.02994,0.31679 2.17114,0.20652 3.4241,-0.33447 0.31281,0.62192 0.80586,1.06326 1.49675,1.3071 1.09212,0.39316 2.3159,0.29501 3.67013,-0.29474 1.50713,-0.63343 2.55499,-1.68256 3.14473,-3.14601 0.12548,-0.30952 0.21989,-0.63107 0.29731,-0.95983 2.94005,0.1661 5.8888,0.23713 8.84599,0.21146 1.17384,0.0494 2.35892,0.0763 3.55095,0.0871 -0.64994,0.91653 -1.05538,1.79461 -1.19432,2.62829 -0.1529,0.83002 -0.0547,1.52858 0.29473,2.09648 0.48054,0.83002 1.21225,1.3208 2.19516,1.47369 l 3.47406,-0.29473 c 1.02661,1.17949 1.96482,1.7799 2.81668,1.80174 0.98291,0.0219 2.0652,-0.22927 3.24468,-0.7535 1.13582,-0.52421 2.06384,-1.17945 2.78464,-1.96577 1.04844,0.28395 2.18426,0.27376 3.40744,-0.0321 1.33238,-0.32764 2.38024,-0.92806 3.14472,-1.80175 0.74264,-0.83002 1.20156,-1.781 1.3763,-2.85128 0.11344,-0.72322 0.0774,-1.42314 -0.1038,-2.10033 5.19922,-0.95372 10.12127,-2.27834 14.74973,-3.99307 8.83029,-3.26907 16.11422,-7.69148 21.8619,-13.25937 0.5663,0.87628 1.16289,1.38338 1.79277,1.49675 l 1.90042,0.3601 5.30786,0.85218 c 1.76924,0.21842 3.13451,0.22989 4.09558,0.0334 0.65527,-0.10923 0.98289,-0.60128 0.98289,-1.47498 l -0.22939,-1.83507 -0.22937,-1.53905 c 1.59448,2.86136 2.90495,4.63075 3.93155,5.30786 0.80816,0.54605 2.18364,0.75256 4.12762,0.62151 l 0.62279,-0.0653 c 1.24502,-0.0655 2.12971,-0.40334 2.65393,-1.01492 0.28394,-0.3058 0.50193,-0.85268 0.65483,-1.639 0.98291,1.61634 2.09705,2.654 3.34207,3.11269 l 3.83416,0.32806 1.53905,-0.0334 c 1.13581,0 1.91214,-0.29446 2.32715,-0.88422 0.21842,-0.34948 0.32677,-0.75358 0.32677,-1.21226 0,-0.50238 -0.18483,-1.26725 -0.55615,-2.29384 l -2.09777,-6.35609 5.76662,7.76571 c 1.22317,1.55081 3.06904,2.46737 5.53723,2.75132 l 5.20919,-0.19606 0.3934,-0.0653 c 0.48054,-0.0655 0.8413,-0.31665 1.08157,-0.7535 l 0.0974,-0.55744 -0.0321,-0.1307 1.11359,1.04823 c 0.61159,0.52422 1.79075,0.77535 3.53815,0.75351 l 5.53724,-0.45877 1.44164,-0.16402 c 0.76449,-0.0438 1.24508,-0.33816 1.44166,-0.88422 l 0.13072,-0.58948 c 0,-0.54607 -0.26133,-1.28925 -0.78556,-2.22848 l -2.39249,-3.47278 c 3.25452,2.55556 5.74542,4.21531 7.47097,4.97979 2.55557,1.1795 5.52577,1.66008 8.91135,1.44166 l 6.78154,-0.72019 c 1.5945,-0.56791 1.64931,-1.69352 0.16403,-3.37539 l -3.24341,-3.1127 -6.38813,-6.15874 c 6.24694,3.75689 12.19883,6.82526 17.85602,9.20609 5.32956,2.24976 8.98814,3.30909 10.9758,3.17804 5.06745,-0.34947 8.69289,-0.86193 10.87712,-1.53905 2.99241,-0.91738 2.8726,-2.07615 -0.36009,-3.47407 -1.09212,-0.48053 -2.76334,-1.37542 -5.01311,-2.68596 6.31246,2.44636 10.5396,3.8333 12.68015,4.16094 2.22794,0.34948 4.84885,0.19651 7.86311,-0.45876 1.76923,-0.39317 4.05106,-1.09175 6.84689,-2.0965 1.94398,-0.69895 2.69738,-1.50716 2.26052,-2.42454 -0.69896,-1.4416 -3.95344,-3.71323 -9.76352,-6.81485 l -3.47279,-2.29385 c 19.06844,6.90222 32.34898,8.64993 39.84092,5.24251 3.0361,-1.35424 4.68565,-2.40337 4.94777,-3.14601 0.65527,-1.83477 -2.68717,-3.81065 -10.02623,-5.92937 -1.39792,-0.41501 -3.40695,-1.17986 -6.02804,-2.29384 9.15198,1.26687 16.18487,1.72579 21.09942,1.37631 3.36373,-0.24027 6.09429,-0.94013 8.19117,-2.09777 1.59449,-0.91739 2.52252,-1.76892 2.78463,-2.55526 0.50238,-1.41976 -1.13569,-2.54409 -4.91445,-3.37411 5.37324,-0.10921 9.84003,-0.70962 13.40035,-1.80175 2.70846,-0.83001 4.76083,-1.88934 6.15875,-3.17805 l 2.58857,-2.1298 c 1.02659,-0.93922 1.47531,-1.7589 1.34427,-2.45787 -0.41501,-1.96581 -5.67981,-3.23293 -15.79285,-3.80083 -4.84903,-0.26211 -17.16839,-2.19466 -36.95763,-5.79866 -23.32771,-4.23743 -40.80095,-8.18028 -52.42113,-11.82797 -4.43401,-1.37607 -8.13722,-1.835 -11.10779,-1.3763 -1.81292,0.30579 -4.94629,1.45308 -9.40215,3.44076 l -5.14383,2.29383 c -2.18424,0.96105 -5.0461,2.14021 -8.58457,3.53813 -7.25168,2.88319 -14.88499,5.35115 -22.90116,7.40434 -9.70399,2.50373 -18.9055,4.10656 -27.60418,4.80808 0.0738,-1.42555 0.11534,-2.87328 0.11534,-4.34932 v -0.19606 c 0.24027,-0.69895 0.9605,-1.57345 2.16184,-2.62189 0.67712,-0.61159 2.00925,-1.65944 3.99691,-3.14474 l 2.5386,-1.94911 3.94948,-0.41007 c 2.64294,-0.30579 4.80494,-0.68822 6.48681,-1.14691 0.80817,-0.21843 1.29895,-0.41474 1.4737,-0.58949 0.19658,-0.19656 0.15324,-0.48085 -0.13071,-0.85216 l -4.19298,-5.56927 8.84599,-3.60478 c 4.67428,-1.83477 7.73245,-2.99226 9.17406,-3.47279 l 2.58728,-0.94957 c 0.26211,-0.24027 -0.0974,-0.65585 -1.08027,-1.24559 -2.68663,-1.61634 -5.88756,-3.0581 -9.60078,-4.32497 l -5.13615,-1.51982 c -0.41485,-1.39469 -1.12442,-2.61483 -2.13748,-3.65603 -1.41976,-1.46344 -3.54862,-2.68723 -6.38814,-3.67013 -2.99241,-1.0266 -6.38967,-1.92148 -10.19026,-2.68597 -4.32479,-0.8737 -7.99357,-1.32242 -11.00783,-1.34427 -6.4872,0 -11.59902,1.50806 -15.33408,4.52232 -5.3077,1.76924 -11.82687,3.03636 -19.55908,3.80084 -6.79301,0.67712 -12.37394,0.80714 -16.74243,0.39213 -2.49004,-0.24027 -3.86679,-0.24027 -4.1289,0 -0.28394,0.24026 0.41591,0.98346 2.09777,2.22848 l 4.42235,3.04733 c 1.22318,0.74265 2.67642,1.49604 4.35829,2.26052 -3.47294,-0.19658 -7.09966,-0.66698 -10.87841,-1.40962 -3.21083,-0.61158 -5.98473,-1.31016 -8.32187,-2.09648 -2.35898,-0.80817 -3.65797,-1.01596 -3.89823,-0.6228 -0.19658,0.30579 0.24066,1.25678 1.31095,2.85127 1.57265,2.33715 3.63649,4.52082 6.19206,6.55217 2.51188,1.96581 5.30744,3.64723 8.38723,5.04514 -1.95768,0.35833 -3.92636,0.63619 -5.90502,0.84065 -6.76004,-3.44637 -14.45738,-7.75635 -23.12417,-12.96211 -16.75309,-10.04749 -31.82339,-20.42282 -45.2128,-31.12562 -4.82717,-3.84426 -8.88986,-6.20386 -12.18808,-7.07756 -3.45109,-0.91739 -10.62676,-1.48465 -21.52614,-1.70308 l -27.91428,-0.59075 -28.078309,-1.04825 -47.769393,-3.40743 z"
     id="path2" />
</svg>
