<?xml version="1.0" encoding="UTF-8" standalone="no"?>
<svg
   xmlns:dc="http://purl.org/dc/elements/1.1/"
   xmlns:cc="http://creativecommons.org/ns#"
   xmlns:rdf="http://www.w3.org/1999/02/22-rdf-syntax-ns#"
   xmlns:svg="http://www.w3.org/2000/svg"
   xmlns="http://www.w3.org/2000/svg"
   id="svg134"
   viewBox="-0.15 -0.1 763.45 273.35"
   height="273"
   width="763"
   version="1.1">
  <defs
     id="defs138" />
  <path
     id="path2"
     d="m 3.2096662,0.2508987 c -2.2000002,-0.0667 -3.24856299,0.86713 -3.14856298,2.80046 0.10000001,1.8 1.14856278,4.08391 3.14856298,6.8505696 4.8000002,6.6666697 10.8015648,11.3492397 18.0015648,14.0492397 2.8,1.06667 13.816798,4.39913 33.050132,9.99913 l 44.148328,12.85044 -23.449949,-1.40023 -26.549621,-0.79985 -8.698638,0.20143 c -2.966667,-0.0667 -4.20005,0.93327 -3.700051,2.99993 0.466668,1.93334 2.266159,4.31645 5.399493,7.14978 7.666667,7 16.066902,11.21568 25.200236,12.64901 l 21.150129,3.15052 16.44881,2.74962 c -7.533347,0.7 -13.165271,1.38283 -16.898605,2.04949 -6.7,1.16667 -9.933253,2.85139 -9.699921,5.05139 0.300001,2.70001 2.916562,5.71537 7.849896,9.0487 5.1,3.46667 10.132745,5.41791 15.09942,5.85124 6.56666,0.56667 25.56543,0.56667 56.99877,0 -12.00001,2.3 -20.68231,4.08198 -26.04899,5.348642 -9.16666,2.2 -14.3492,4.08314 -15.5492,5.64981 -0.66667,0.86667 -0.30094,2.20122 1.09906,4.00121 1.33334,1.73334 3.35072,3.51728 6.05072,5.35061 6.56667,4.46666 13.11682,6.79919 19.65016,6.9992 l 31.69879,-1.75029 -10.14972,3.15052 -5.20001,1.89891 c -1.2,0.36667 -1.61632,0.86664 -1.24965,1.49997 0.36667,0.6 1.63313,1.48321 3.79979,2.64988 l 9.75077,5.05138 c 4.69999,2.20001 8.09861,3.36529 10.1986,3.49862 1.96667,0.10003 4.43344,-0.3163 7.4001,-1.24964 l 7.05005,-2.14924 c -1.6,0.93334 -2.86645,1.71734 -3.79979,2.35067 -1.76667,1.2 -2.38336,2.0657 -1.85003,2.59903 2,2 5.05039,4.13411 9.15039,6.40078 6.23334,3.5 11.5326,4.79952 15.89927,3.89952 6.56667,-1.3 14.99997,-3.35045 25.29997,-6.15046 -2.33333,1.40001 -4.21648,2.69953 -5.64981,3.89954 -1.93334,1.56666 -2.78348,2.75141 -2.55015,3.55141 0.23334,0.93334 3.30124,1.99941 9.20125,3.19941 5.86666,1.23334 9.49872,1.566 10.89871,0.99933 l 24.70156,-9.54934 c -1.86667,1.36667 -3.6506,2.8335 -5.35061,4.40017 l -3.65116,3.50057 c -1.86667,1.8 -0.25004,3.68315 4.84996,5.64981 5.00001,1.90001 8.56787,2.4486 10.70121,1.6486 l 12.40064,-5.04943 -2.75157,3.09967 c -1,1.43333 -1.01556,2.36713 -0.0489,2.80046 1.4,0.63333 4.53208,1.25002 9.39875,1.85002 2.53583,0.30494 4.65307,0.47017 6.39296,0.51238 -2.327,1.07546 -4.56073,1.99394 -6.69217,2.73788 -12.9,4.50001 -42.48369,16.75018 -88.75036,36.75018 -45.56667,19.73334 -78.46726,34.48336 -98.7006,44.25002 -6.03333,2.9 -8.63238,5.06718 -7.79905,6.50052 0.83334,1.43333 4.31755,1.34967 10.45088,-0.25033 l 93.70006,-29.95046 c 57.50001,-18.36666 87.83267,-27.36608 90.99933,-26.99941 0.76667,0.10003 1.21606,0.39958 1.34939,0.89958 0.16666,0.5 -0.0998,0.9669 -0.79985,1.40024 l -81.19968,67.15043 c -3.53333,2.96667 -4.79978,4.69807 -3.79978,5.19807 0.93332,0.5 3.51682,-0.23146 7.75015,-2.19813 15.9,-8.30001 37.03287,-19.85179 63.39954,-34.65179 15.0174,-8.43046 25.79097,-14.55916 33.23982,-18.88356 1.57177,0.48346 3.31335,0.31518 5.22546,-0.51042 0.47736,0.9491 1.22982,1.62263 2.28416,1.99474 1.66667,0.6 3.53426,0.45021 5.60093,-0.44979 2.3,-0.96667 3.89911,-2.56773 4.79911,-4.80107 0.19149,-0.47236 0.33556,-0.96307 0.45371,-1.46477 4.48677,0.25347 8.9868,0.36186 13.4997,0.32269 1.79137,0.0754 3.5999,0.1165 5.41905,0.13298 -0.99186,1.39871 -1.6106,2.73873 -1.82264,4.01099 -0.23334,1.26667 -0.0835,2.33274 0.44979,3.19941 0.73333,1.26667 1.84999,2.01564 3.34999,2.24897 l 5.30171,-0.44979 c 1.56667,1.8 2.99847,2.71628 4.29848,2.74961 1.5,0.0333 3.15165,-0.3499 4.95165,-1.14991 1.73334,-0.79999 3.14958,-1.79993 4.24958,-2.99993 1.6,0.43334 3.33336,0.41778 5.20002,-0.0489 2.03333,-0.5 3.63245,-1.41629 4.79911,-2.74961 1.13333,-1.26667 1.83368,-2.71794 2.10035,-4.35128 0.17312,-1.10369 0.11806,-2.17183 -0.15841,-3.20528 7.93443,-1.45546 15.44588,-3.47693 22.50929,-6.09374 13.47573,-4.98888 24.59161,-11.73782 33.36304,-20.23489 0.86423,1.33728 1.77466,2.11115 2.73592,2.28417 l 2.9002,0.54954 8.10022,1.30049 c 2.7,0.33333 4.78351,0.35084 6.25018,0.0509 1,-0.16668 1.49997,-0.9176 1.49997,-2.25093 l -0.35005,-2.80046 -0.35006,-2.34872 c 2.43333,4.36667 4.4332,7.06689 5.99987,8.10022 1.23333,0.83333 3.33242,1.14848 6.29908,0.94848 l 0.95043,-0.0997 c 1.90001,-0.10003 3.25011,-0.61552 4.05011,-1.54885 0.43333,-0.46667 0.766,-1.30126 0.99933,-2.50125 1.5,2.46666 3.20028,4.05022 5.10028,4.75022 l 5.85124,0.50064 2.34872,-0.0509 c 1.73333,0 2.91808,-0.44938 3.55142,-1.34938 0.33333,-0.53334 0.49868,-1.15003 0.49868,-1.85002 0,-0.76667 -0.28208,-1.93392 -0.84874,-3.50059 l -3.20136,-9.69992 8.80033,11.85112 c 1.86666,2.36667 4.6836,3.7654 8.45027,4.19874 l 7.94963,-0.29922 0.60037,-0.0997 c 0.73334,-0.10002 1.28389,-0.48323 1.65056,-1.1499 l 0.14863,-0.8507 -0.0489,-0.19947 1.69944,1.5997 c 0.93333,0.8 2.73282,1.18324 5.39949,1.14991 l 8.45028,-0.70012 2.20007,-0.25032 c 1.16668,-0.0667 1.90009,-0.51605 2.20009,-1.34938 l 0.19948,-0.89959 c 0,-0.83334 -0.3988,-1.96751 -1.19881,-3.40084 l -3.65115,-5.29975 c 4.96666,3.89999 8.76797,6.43291 11.40131,7.59957 3.9,1.8 8.43278,2.53342 13.59945,2.20009 l 10.34918,-1.09907 c 2.43334,-0.86667 2.51699,-2.58446 0.25032,-5.15112 l -4.9497,-4.75023 -9.7488,-9.39875 c 9.53333,5.73333 18.6164,10.41591 27.24973,14.04924 8.13334,3.43333 13.71664,5.04995 16.74997,4.84996 7.73333,-0.53333 13.26605,-1.31538 16.59937,-2.34872 4.56667,-1.39999 4.38381,-3.16838 -0.54953,-5.30171 -1.66666,-0.73333 -4.21708,-2.099 -7.65042,-4.099 9.63334,3.73334 16.08429,5.84993 19.35095,6.34993 3.40001,0.53334 7.39974,0.29989 11.99975,-0.70011 2.69999,-0.6 6.18225,-1.66608 10.44892,-3.19941 2.96667,-1.06666 4.1164,-2.30005 3.44972,-3.70005 -1.06666,-2.2 -6.03326,-5.6667 -14.89992,-10.40003 l -5.29976,-3.50059 c 29.1,10.53334 49.36717,13.20049 60.8005,8.00049 4.63333,-2.06667 7.15069,-3.66774 7.55069,-4.80107 1,-2.8 -4.10084,-5.81537 -15.30084,-9.0487 -2.13333,-0.63334 -5.19928,-1.80057 -9.19928,-3.50058 13.96666,1.93334 24.69943,2.63368 32.19943,2.10035 5.13333,-0.36667 9.30038,-1.4347 12.50039,-3.20137 2.43332,-1.39999 3.84957,-2.69951 4.24958,-3.89952 0.76666,-2.16667 -1.73317,-3.8825 -7.49985,-5.14917 8.2,-0.16667 15.01668,-1.08295 20.45002,-2.74962 4.13333,-1.26666 7.26542,-2.88329 9.39875,-4.84996 l 3.95037,-3.25025 c 1.56667,-1.43333 2.25145,-2.68423 2.05146,-3.7509 -0.63333,-3 -8.66784,-4.93373 -24.10117,-5.8004 -7.40001,-0.39999 -26.20035,-3.34922 -56.40035,-8.84922 -35.59999,-6.46666 -62.26558,-12.483772 -79.99892,-18.050442 -6.76666,-2.1 -12.41806,-2.80035 -16.95139,-2.10035 -2.76666,0.46667 -7.54845,2.21753 -14.34845,5.25087 l -7.8499,3.50057 c -3.33333,1.466662 -7.70076,3.266152 -13.10076,5.399492 -11.06666,4.39999 -22.71571,8.16629 -34.94904,11.29962 -14.80908,3.82089 -28.85133,6.26696 -42.12621,7.33752 0.11261,-2.17549 0.176,-4.38486 0.176,-6.63741 v -0.29921 c 0.36667,-1.06666 1.46582,-2.40121 3.29915,-4.00121 1.03334,-0.93334 3.06627,-2.53244 6.09961,-4.79912 l 3.8741,-2.97451 6.02725,-0.6258 c 4.03333,-0.46666 7.33273,-1.05029 9.89939,-1.75029 1.23334,-0.33334 1.98231,-0.63292 2.24898,-0.89959 0.3,-0.29999 0.23386,-0.73382 -0.19947,-1.300481 l -6.39883,-8.499161 13.49971,-5.50119 c 7.13333,-2.8 11.80035,-4.56642 14.00036,-5.29975 l 3.94841,-1.44913 c 0.39999,-0.36666 -0.1486,-1.00087 -1.6486,-1.90087 -4.1,-2.46666 -8.9849,-4.66691 -14.65157,-6.60025 l -7.83817,-2.31937 c -0.6331,-2.12841 -1.71596,-3.99045 -3.26198,-5.57941 -2.16667,-2.23333 -5.41548,-4.10092 -9.74882,-5.60092 -4.56666,-1.56667 -9.75115,-2.93233 -15.55116,-4.099 -6.6,-1.33334 -12.19885,-2.01812 -16.79885,-2.05146 -9.9,0 -17.70105,2.30142 -23.40105,6.90142 -8.1,2.7 -18.04877,4.63373 -29.84877,5.80039 -10.36667,1.03334 -18.88363,1.23176 -25.5503,0.59843 -3.8,-0.36667 -5.90104,-0.36667 -6.30104,0 -0.43333,0.36666 0.63471,1.50084 3.20137,3.40084 l 6.74887,4.65048 c 1.86667,1.13334 4.08443,2.28307 6.6511,3.44973 -5.3,-0.3 -10.83467,-1.01786 -16.60134,-2.15119 -4.89999,-0.93333 -9.13318,-1.99941 -12.69985,-3.19941 -3.6,-1.23333 -5.58236,-1.55044 -5.94903,-0.95043 -0.29999,0.46666 0.36728,1.91794 2.00062,4.35127 2.4,3.56667 5.54959,6.89913 9.44959,9.99913 3.83333,3 8.0996,5.56598 12.79959,7.69931 -2.98757,0.54684 -5.99194,0.97087 -9.01153,1.2829 -10.31638,-5.25945 -22.06315,-11.83684 -35.28939,-19.78124 -25.56667,-15.33334 -48.56517,-31.16694 -68.9985,-47.50028 -7.36667,-5.86666 -13.56666,-9.4676 -18.6,-10.80094 -5.26666,-1.4 -16.21731,-2.26569 -32.85065,-2.59903 L 173.36106,11.300228 130.51127,9.7005183 57.611276,4.5004987 Z"
     style="fill:#ffffff;fill-opacity:1.0;stroke-width:1" />
</svg>
