<?xml version="1.0" standalone="no"?>
<!DOCTYPE svg PUBLIC "-//W3C//DTD SVG 20010904//EN"
 "http://www.w3.org/TR/2001/REC-SVG-20010904/DTD/svg10.dtd">
<svg version="1.0" xmlns="http://www.w3.org/2000/svg"
 width="2000.000000pt" height="2000.000000pt" viewBox="0 0 2000.000000 2000.000000"
 preserveAspectRatio="xMidYMid meet">
<metadata>
Created by potrace 1.11, written by Peter Selinger 2001-2013
</metadata>
<g transform="translate(0.000000,2000.000000) scale(0.100000,-0.100000)"
fill="#000000" stroke="none">
<path d="M55 13572 c-78 -16 -71 -102 19 -237 66 -98 135 -171 241 -250 105
-80 217 -131 405 -187 36 -11 108 -32 160 -48 262 -79 310 -93 370 -110 36
-10 88 -25 115 -33 69 -21 268 -78 280 -81 6 -2 17 -5 25 -8 8 -3 35 -11 60
-18 25 -7 56 -16 70 -20 14 -4 50 -15 80 -24 30 -8 102 -29 160 -46 58 -17
112 -33 120 -35 8 -2 47 -13 85 -25 39 -12 79 -23 90 -25 11 -3 31 -9 45 -14
14 -6 45 -16 70 -22 62 -17 58 -16 75 -18 8 0 15 -5 15 -9 0 -4 -19 -7 -42 -5
-24 2 -77 5 -118 7 -41 3 -115 7 -165 11 -243 17 -518 26 -910 30 -359 4 -373
1 -360 -74 11 -61 72 -137 186 -231 29 -25 63 -53 73 -62 11 -10 23 -18 27
-18 4 0 21 -12 38 -26 17 -14 31 -22 31 -18 0 4 8 0 18 -8 29 -26 155 -85 239
-113 94 -30 123 -37 208 -50 22 -3 69 -10 105 -16 36 -6 83 -12 105 -15 22 -2
51 -6 65 -9 14 -3 45 -8 70 -11 25 -3 54 -8 65 -10 11 -2 40 -6 65 -9 25 -3
56 -8 70 -11 14 -3 41 -8 60 -10 19 -2 49 -7 65 -11 17 -4 39 -8 50 -9 11 -1
34 -4 50 -8 40 -8 72 -14 119 -21 44 -6 59 -14 30 -16 -10 -1 -30 -2 -44 -4
-38 -4 -129 -14 -185 -20 -27 -3 -63 -8 -80 -11 -16 -3 -44 -7 -61 -9 -103
-14 -239 -59 -263 -89 -21 -25 -21 -57 0 -99 24 -52 59 -90 129 -144 164 -125
317 -186 495 -200 75 -5 1070 -5 1273 1 67 1 122 -1 122 -6 0 -4 -6 -8 -12 -8
-29 -1 -95 -12 -123 -20 -16 -5 -50 -12 -75 -16 -25 -4 -47 -8 -50 -9 -5 -2
-72 -15 -100 -21 -156 -29 -469 -107 -501 -125 -10 -5 -19 -8 -19 -5 0 7 -103
-37 -130 -56 -95 -68 101 -261 395 -389 39 -17 171 -49 220 -53 28 -3 52 -5
55 -7 3 -1 10 0 15 1 6 1 48 4 95 5 47 2 123 6 170 9 47 3 137 8 200 12 116 6
202 11 273 17 48 3 58 -9 15 -19 -18 -3 -46 -13 -63 -20 -16 -7 -64 -23 -105
-35 -41 -12 -79 -24 -85 -28 -5 -3 -13 -6 -17 -7 -5 -1 -10 -3 -13 -4 -3 -1
-8 -3 -12 -5 -59 -16 -63 -18 -63 -40 0 -26 15 -36 145 -105 158 -84 294 -150
308 -150 7 0 17 -3 21 -7 17 -17 87 -35 151 -38 62 -3 112 6 220 39 6 1 24 6
40 11 17 4 35 10 40 14 6 3 21 7 35 8 17 1 20 0 9 -5 -43 -20 -109 -69 -118
-88 -8 -18 -4 -26 27 -50 19 -16 41 -35 48 -41 7 -7 15 -13 18 -13 3 0 26 -14
52 -31 25 -18 83 -51 128 -74 196 -102 288 -111 526 -54 47 11 97 22 112 24
15 2 32 6 38 10 6 4 21 8 33 10 12 1 42 8 67 15 25 7 52 14 60 16 70 16 138
36 151 44 9 5 19 6 23 3 5 -5 -76 -73 -88 -73 -10 0 -82 -76 -89 -93 -15 -39
46 -64 273 -113 14 -3 39 -7 55 -9 17 -2 50 -7 75 -11 25 -4 59 -6 75 -5 33 2
144 39 159 53 6 4 15 8 22 8 6 0 29 8 50 17 22 9 44 18 49 19 21 5 331 126
359 140 45 23 41 10 -11 -31 -27 -21 -57 -48 -69 -59 -11 -12 -40 -38 -63 -59
-57 -51 -68 -83 -40 -113 35 -37 154 -89 264 -115 83 -19 128 -12 240 36 96
42 209 84 213 80 3 -3 -8 -17 -24 -33 -33 -31 -57 -79 -48 -93 8 -14 51 -29
94 -35 19 -2 43 -7 52 -10 33 -10 167 -25 245 -28 18 0 29 -4 25 -7 -10 -9
-184 -79 -197 -79 -5 0 -22 -6 -36 -14 -14 -7 -37 -16 -50 -19 -14 -4 -43 -14
-65 -23 -21 -10 -43 -19 -49 -20 -9 -2 -367 -144 -410 -163 -71 -31 -96 -42
-145 -60 -30 -12 -64 -26 -75 -31 -11 -5 -119 -50 -240 -101 -121 -50 -240
-100 -265 -112 -25 -11 -52 -22 -60 -23 -20 -4 -64 -27 -72 -39 -4 -5 -8 -7
-8 -2 0 4 -13 1 -30 -8 -17 -9 -30 -12 -30 -9 0 4 -9 -1 -20 -11 -11 -10 -20
-15 -20 -11 0 4 -12 1 -27 -8 -35 -18 -99 -46 -107 -46 -3 0 -29 -11 -58 -24
-57 -27 -130 -58 -138 -60 -3 -1 -16 -8 -30 -16 -14 -7 -25 -12 -25 -11 0 1
-18 -6 -40 -15 -22 -10 -42 -18 -45 -19 -3 -1 -25 -10 -50 -22 -25 -11 -74
-33 -110 -48 -36 -15 -83 -35 -105 -45 -22 -10 -89 -39 -150 -65 -60 -26 -116
-52 -122 -57 -7 -6 -13 -7 -13 -4 0 4 -12 0 -27 -8 -16 -8 -44 -21 -63 -29
-19 -8 -57 -25 -85 -38 -27 -12 -52 -23 -55 -23 -3 -1 -39 -16 -80 -34 -41
-19 -84 -38 -95 -42 -11 -5 -47 -21 -80 -36 -68 -30 -108 -47 -115 -49 -3 0
-41 -18 -84 -38 -43 -20 -80 -37 -82 -37 -2 0 -33 -13 -68 -30 -36 -16 -91
-40 -123 -54 -86 -36 -214 -94 -246 -111 -16 -8 -35 -15 -43 -15 -8 0 -14 -4
-14 -8 0 -5 -6 -9 -12 -9 -7 0 -53 -19 -103 -43 -160 -75 -215 -100 -219 -100
-4 0 -102 -45 -276 -127 -52 -24 -140 -65 -195 -90 -191 -88 -354 -175 -389
-208 -37 -34 -46 -68 -23 -82 20 -13 139 -10 187 4 25 8 46 13 48 13 1 0 3 0
5 1 1 0 10 2 19 4 18 3 112 32 138 42 8 4 17 7 20 8 47 13 242 75 290 93 8 3
21 6 28 8 13 2 95 29 144 46 15 6 31 10 35 10 4 0 24 6 43 13 63 24 394 128
407 128 7 0 13 4 13 9 0 4 3 7 8 6 4 -1 41 9 82 22 41 13 80 25 85 26 6 1 37
12 70 23 71 24 242 79 270 87 30 8 39 10 55 17 15 5 137 44 415 132 83 26 157
50 165 53 8 3 17 6 20 7 3 1 12 4 20 7 8 3 69 23 135 43 66 20 147 46 180 57
33 11 67 21 75 23 8 2 38 11 65 20 61 20 68 22 77 24 4 1 27 9 50 17 24 9 48
17 53 18 19 4 190 57 295 92 58 19 119 38 135 43 17 5 82 26 146 46 64 19 125
37 136 39 10 2 36 11 56 20 21 8 38 15 40 14 1 -1 29 7 62 16 69 21 77 23 88
25 4 0 23 7 42 15 19 8 35 13 35 11 0 -2 16 3 35 11 19 8 37 14 40 14 3 0 31
7 63 17 31 9 62 18 67 19 6 2 66 19 135 39 69 20 132 38 140 40 8 2 26 8 40
13 14 5 27 10 30 10 3 0 25 6 50 12 63 18 177 44 243 55 16 3 37 -1 49 -9 21
-15 21 -16 -25 -58 -26 -24 -61 -55 -79 -69 -104 -84 -165 -134 -180 -148 -9
-9 -31 -28 -50 -42 -39 -31 -338 -278 -354 -294 -7 -5 -24 -19 -38 -29 -15
-11 -37 -29 -50 -40 -13 -12 -34 -30 -47 -41 -72 -60 -196 -162 -213 -175 -10
-8 -23 -19 -30 -25 -23 -20 -184 -153 -260 -216 -44 -35 -94 -76 -110 -91 -17
-14 -76 -63 -131 -108 -55 -46 -120 -99 -145 -120 -25 -21 -90 -75 -145 -120
-55 -45 -120 -99 -145 -120 -25 -21 -74 -62 -110 -91 -130 -107 -162 -159 -98
-159 17 0 48 5 67 12 35 12 250 120 344 172 26 15 47 23 47 19 0 -4 4 -3 8 3
8 12 68 45 78 43 4 0 10 3 13 8 3 5 22 17 41 27 19 9 59 30 88 46 29 16 81 44
115 63 34 18 136 74 227 124 91 51 169 92 174 91 5 0 12 4 15 10 3 5 53 34
111 66 58 31 112 61 120 66 8 5 65 36 125 70 61 34 117 65 125 70 8 5 42 23
75 41 33 18 77 43 97 55 21 13 40 24 42 24 2 0 59 32 126 70 67 39 126 70 131
70 5 0 9 5 9 10 0 6 5 10 10 10 6 0 73 35 148 78 75 43 157 90 182 104 25 14
74 43 110 64 45 27 77 39 105 39 22 1 55 5 73 9 26 6 38 4 55 -11 54 -45 114
-50 199 -15 40 16 104 85 117 125 l12 34 87 -2 c48 -2 156 -4 240 -6 139 -2
183 -10 154 -28 -6 -3 -14 -19 -17 -34 -4 -15 -11 -29 -15 -32 -16 -10 8 -97
34 -123 24 -24 34 -27 99 -28 39 0 77 3 82 7 6 5 27 -8 50 -29 21 -20 39 -36
39 -34 1 2 9 0 18 -3 16 -6 82 -2 118 8 34 9 67 27 110 58 37 27 52 32 91 30
97 -5 189 38 235 110 25 41 49 139 33 139 -5 0 -6 7 -3 14 5 13 81 36 134 41
9 0 21 4 28 9 6 4 12 5 12 3 0 -3 21 2 48 10 26 8 61 17 77 20 30 5 267 81
315 101 14 6 50 20 80 32 69 28 303 140 310 149 3 3 21 15 40 25 91 49 308
205 318 229 2 4 7 7 12 7 5 0 28 19 51 41 40 39 44 40 52 21 9 -20 47 -43 82
-47 19 -3 44 -8 105 -19 14 -3 43 -8 65 -11 22 -3 56 -9 75 -12 19 -3 69 -6
112 -6 98 -1 110 8 107 82 -1 31 -6 66 -10 79 -14 38 -2 25 47 -50 54 -85 101
-131 147 -145 46 -14 176 -6 219 13 25 11 41 27 50 50 l14 34 29 -38 c16 -22
43 -48 61 -60 54 -35 258 -47 324 -18 19 8 31 15 26 16 -5 0 -3 6 3 14 6 7 9
30 6 51 -4 35 -45 173 -65 220 -26 62 -39 127 -18 90 6 -11 30 -45 53 -75 23
-30 68 -91 101 -135 70 -96 105 -130 164 -158 40 -20 61 -22 196 -22 135 0
154 2 173 19 11 10 18 23 15 27 -10 17 7 9 34 -16 29 -27 72 -39 142 -39 50 0
223 13 255 19 11 2 30 4 42 4 12 1 29 8 37 17 35 34 14 98 -73 219 l-36 50 40
-29 c22 -17 56 -41 75 -55 19 -14 36 -29 38 -33 2 -5 7 -8 12 -8 4 0 34 -16
66 -35 140 -84 283 -112 479 -91 197 20 213 23 243 38 24 13 29 46 11 81 -7
11 -62 69 -123 128 -61 59 -149 144 -195 188 -46 45 -81 81 -78 81 4 0 106
-58 157 -90 8 -5 31 -17 50 -27 19 -9 58 -30 85 -46 28 -16 55 -30 60 -31 6
-1 27 -12 46 -24 20 -12 39 -22 42 -22 4 0 48 -20 99 -44 254 -120 465 -194
563 -198 25 -1 198 12 223 17 10 2 43 6 73 10 149 18 257 59 259 97 0 16 -49
51 -120 85 -41 19 -88 45 -105 57 -16 11 -31 19 -33 18 -2 -2 -6 -1 -10 2 -3
3 1 6 9 6 8 0 20 -5 27 -12 7 -7 12 -9 12 -5 0 4 10 2 23 -5 22 -12 133 -54
172 -64 11 -3 27 -8 35 -12 8 -3 18 -6 23 -7 4 -2 8 -3 10 -5 1 -1 15 -4 32
-6 16 -3 35 -10 42 -16 8 -6 16 -8 19 -5 3 3 18 1 33 -5 43 -16 190 -18 276
-3 159 28 359 92 412 132 74 55 6 123 -301 300 -72 42 -132 80 -134 84 -2 5
-10 9 -17 9 -8 0 -17 5 -21 11 -8 14 33 6 81 -16 17 -7 48 -18 70 -25 22 -6
49 -15 60 -20 25 -10 208 -65 252 -75 10 -2 45 -12 78 -21 60 -16 80 -21 125
-30 13 -3 56 -12 95 -20 38 -8 89 -17 111 -20 23 -3 53 -7 65 -10 121 -24 440
-20 489 6 11 6 20 9 20 6 0 -9 105 31 185 70 127 63 159 110 109 165 -22 24
-177 104 -234 120 -54 15 -51 14 -70 21 -8 3 -62 22 -120 41 -114 39 -180 65
-180 72 0 2 8 2 18 1 33 -7 98 -16 152 -21 30 -4 66 -8 80 -10 22 -3 121 -11
245 -21 58 -4 314 -4 355 1 92 9 186 30 240 52 8 3 17 7 20 7 18 3 103 61 126
85 57 60 33 110 -69 146 -70 24 -75 30 -24 31 51 1 182 13 217 19 14 2 45 7
70 11 24 3 47 7 51 9 3 2 21 7 40 10 45 9 63 13 67 15 1 2 5 3 10 4 102 23
228 99 347 208 17 15 33 28 37 28 4 0 12 18 19 39 10 35 9 42 -10 67 -11 14
-21 23 -21 19 0 -5 -9 0 -20 10 -11 10 -20 15 -20 10 0 -4 -6 -3 -12 3 -7 5
-29 13 -48 18 -19 4 -39 9 -45 10 -71 19 -239 40 -399 49 -78 4 -135 10 -221
22 -57 7 -94 12 -139 17 -22 3 -54 8 -73 11 -18 3 -50 8 -70 11 -21 3 -51 7
-68 10 -16 3 -43 7 -60 10 -16 2 -41 6 -55 9 -14 3 -38 7 -55 9 -24 4 -264 44
-360 61 -91 15 -159 27 -310 54 -164 30 -168 31 -195 37 -13 3 -40 7 -60 10
-19 2 -42 6 -50 9 -8 3 -53 11 -100 20 -47 8 -96 17 -110 20 -14 3 -38 8 -54
10 -15 2 -36 7 -46 10 -10 3 -32 7 -49 10 -17 2 -39 6 -50 10 -10 3 -32 7 -48
9 -15 2 -46 9 -68 14 -22 6 -56 13 -75 16 -19 3 -64 13 -100 21 -36 8 -76 17
-90 20 -106 18 -129 23 -137 28 -5 3 -25 8 -45 11 -35 5 -94 19 -143 32 -11 3
-27 7 -35 8 -8 1 -26 5 -40 9 -14 3 -92 22 -175 42 -82 20 -189 48 -237 61
-48 13 -95 26 -105 27 -10 2 -25 7 -33 10 -8 3 -49 15 -90 27 -41 12 -82 24
-90 27 -14 6 -98 27 -150 38 -89 19 -218 25 -280 13 -49 -9 -182 -49 -190 -58
-3 -3 -12 -6 -20 -8 -8 -2 -39 -14 -68 -28 -29 -13 -54 -24 -57 -24 -2 0 -34
-14 -72 -32 -37 -18 -72 -33 -78 -34 -5 -1 -44 -17 -85 -36 -75 -35 -106 -48
-115 -47 -3 0 -18 -7 -33 -15 -15 -9 -63 -29 -107 -46 -44 -17 -89 -35 -100
-39 -65 -28 -94 -40 -130 -52 -22 -7 -44 -17 -50 -21 -5 -4 -19 -8 -30 -8 -12
0 -25 -3 -29 -7 -4 -5 -11 -8 -14 -9 -4 0 -20 -6 -37 -13 -16 -7 -38 -13 -47
-14 -10 -1 -18 -5 -18 -9 0 -4 -8 -8 -17 -8 -15 0 -40 -8 -123 -38 -8 -3 -19
-6 -25 -8 -5 -1 -74 -21 -151 -43 -78 -23 -150 -44 -160 -46 -11 -2 -37 -9
-59 -15 -22 -6 -51 -13 -65 -16 -35 -8 -43 -10 -60 -16 -25 -9 -123 -31 -150
-35 -14 -1 -52 -9 -85 -18 -33 -8 -73 -17 -90 -19 -28 -5 -173 -30 -240 -43
-42 -7 -72 -12 -130 -18 -27 -3 -63 -8 -80 -11 -16 -3 -50 -7 -75 -9 -25 -2
-70 -6 -101 -10 l-55 -6 2 78 c1 43 2 88 3 101 1 32 111 138 230 222 19 14 43
33 52 42 34 33 70 51 107 54 219 16 424 58 436 89 2 7 -3 22 -12 33 -36 42
-48 58 -64 83 -9 14 -23 32 -30 40 -7 8 -26 31 -41 52 l-28 37 48 21 c69 30
97 42 103 44 3 1 19 7 35 14 17 7 93 37 170 67 77 31 167 66 200 79 33 13 106
41 163 61 56 20 102 41 102 47 0 35 -209 137 -460 225 -8 3 -24 7 -35 9 -11 2
-27 6 -35 10 -20 8 -29 11 -65 18 -16 3 -30 7 -30 8 -3 16 -59 118 -74 133
-27 30 -107 94 -115 94 -5 0 -21 9 -37 21 -16 11 -29 18 -29 14 0 -3 -13 1
-28 9 -27 14 -188 69 -207 71 -5 0 -30 7 -55 14 -49 14 -77 21 -100 25 -8 2
-26 6 -40 9 -14 4 -38 9 -55 12 -16 3 -39 8 -50 10 -189 35 -445 61 -445 45 0
-3 -28 -6 -63 -6 -66 -1 -123 -7 -172 -19 -49 -11 -190 -59 -195 -66 -3 -4
-18 -11 -33 -14 -15 -4 -27 -10 -27 -15 0 -4 -16 -15 -35 -26 -19 -10 -35 -21
-35 -25 0 -7 -58 -23 -72 -20 -5 0 -8 -3 -8 -7 0 -5 -6 -9 -12 -9 -7 0 -51
-11 -98 -23 -47 -12 -92 -23 -100 -24 -8 -1 -31 -6 -50 -10 -19 -4 -44 -9 -55
-11 -11 -2 -20 -4 -20 -5 0 -1 -9 -3 -20 -4 -11 -2 -42 -6 -70 -10 -27 -5 -63
-10 -80 -11 -48 -5 -84 -13 -96 -21 -8 -5 -9 -3 -4 6 5 8 4 11 -3 6 -6 -4 -35
-9 -64 -12 -29 -3 -69 -7 -88 -9 -150 -19 -419 -23 -657 -11 -153 7 -162 1
-90 -57 76 -62 231 -164 305 -202 39 -20 72 -38 72 -40 0 -2 -17 -2 -37 0 -21
2 -65 7 -98 10 -33 3 -71 8 -85 10 -34 6 -80 14 -121 20 -19 2 -47 7 -64 10
-16 3 -40 8 -53 10 -12 2 -30 6 -40 9 -9 3 -28 7 -42 10 -28 6 -37 8 -136 34
-40 11 -77 23 -83 27 -7 4 -27 9 -44 12 -18 3 -39 8 -47 12 -8 4 -21 6 -27 5
-7 -1 -18 -2 -24 -3 -38 -4 65 -163 180 -277 109 -108 217 -186 371 -266 68
-35 81 -47 46 -44 -14 2 -26 0 -26 -3 0 -4 -17 -7 -37 -8 -21 -1 -51 -5 -68
-8 -16 -3 -39 -7 -50 -8 -11 -2 -58 16 -105 41 -47 24 -112 59 -145 76 -33 17
-61 34 -63 39 -2 4 -10 7 -18 7 -8 0 -27 8 -42 19 -15 10 -90 54 -167 97 -77
43 -149 84 -160 91 -11 7 -28 16 -37 19 -10 3 -18 10 -18 15 0 5 -4 9 -9 9 -5
0 -75 39 -155 88 -81 48 -154 92 -164 97 -10 6 -40 24 -67 41 -28 17 -93 58
-145 90 -52 32 -96 62 -98 67 -2 4 -7 7 -12 7 -5 0 -56 32 -114 70 -58 39
-110 70 -116 70 -5 0 -10 4 -10 8 0 5 -12 15 -27 23 -16 8 -30 17 -33 20 -5 6
-267 185 -299 204 -9 6 -18 13 -21 16 -3 3 -27 21 -55 39 -27 19 -51 37 -53
42 -2 4 -8 8 -13 8 -5 0 -39 23 -74 50 -35 28 -67 50 -70 50 -3 0 -13 7 -22
16 -22 19 -133 104 -163 124 -12 8 -59 44 -104 79 -44 35 -96 75 -115 90 -19
14 -43 34 -55 43 -61 50 -89 70 -171 126 -163 109 -270 158 -395 178 -168 28
-327 40 -635 49 -93 2 -170 5 -170 5 0 1 -359 9 -675 15 -340 7 -568 13 -720
20 -124 5 -277 11 -545 20 -263 9 -343 14 -565 31 -41 3 -103 8 -137 10 -112
7 -186 12 -263 18 -41 3 -115 8 -165 12 -49 3 -115 7 -145 10 -70 6 -133 11
-240 18 -82 5 -141 9 -300 22 -41 3 -102 7 -135 9 -65 3 -180 12 -290 21 -38
3 -92 8 -120 9 -45 3 -101 7 -250 20 -132 10 -225 17 -280 20 -33 2 -60 4 -60
5 0 1 -18 3 -40 5 -36 3 -113 8 -265 20 -163 12 -329 26 -355 29 -11 1 -29 1
-40 -2z"/>
</g>
</svg>
