<?xml version="1.0" encoding="UTF-8" standalone="no"?>
<svg
        xmlns:dc="http://purl.org/dc/elements/1.1/"
        xmlns:cc="http://creativecommons.org/ns#"
        xmlns:rdf="http://www.w3.org/1999/02/22-rdf-syntax-ns#"
        xmlns="http://www.w3.org/2000/svg"
        id="svg8"
        version="1.1"
        viewBox="0 0 179.08008 107.52735"
        height="107.52735mm"
        width="179.08008mm">
    <defs
            id="defs2">
        <filter
                id="filter5198"
                style="color-interpolation-filters:sRGB">
            <feGaussianBlur
                    result="result3"
                    in="SourceAlpha"
                    id="feGaussianBlur5200"
                    stdDeviation="0.5"/>
            <feFlood
                    result="result2"
                    flood-color="rgb(105,105,105)"
                    id="feFlood5212"/>
            <feComposite
                    operator="in"
                    in2="result3"
                    in="result2"
                    id="feComposite5214"/>
            <feOffset
                    result="result1"
                    id="feOffset5202"
                    dy="0.5"
                    dx="0.5"/>
            <feMerge
                    result="result4"
                    id="feMerge5204">
                <feMergeNode
                        in="result1"
                        id="feMergeNode5206"/>
                <feMergeNode
                        in="SourceGraphic"
                        id="feMergeNode5208"/>
            </feMerge>
        </filter>
    </defs>
    <metadata
            id="metadata5">
        <rdf:RDF>
            <cc:Work
                    rdf:about="">
                <dc:format>image/svg+xml</dc:format>
                <dc:type
                        rdf:resource="http://purl.org/dc/dcmitype/StillImage"/>
                <dc:title></dc:title>
            </cc:Work>
        </rdf:RDF>
    </metadata>
    <g
            transform="translate(-15.916016,-105.08398)"
            id="layer1">
        <path
                id="path5393"
                d="m 105.45508,131.55859 c -10.094697,0 -19.307071,2.74032 -26.251955,7.46875 -6.944884,4.72844 -11.769531,11.75433 -11.769531,19.82032 0,8.06598 4.824647,15.09383 11.769531,19.82226 6.944884,4.72843 16.157258,7.4668 26.251955,7.4668 10.09469,0 19.30707,-2.73837 26.25195,-7.4668 6.94489,-4.72843 11.76953,-11.75628 11.76953,-19.82226 0,-8.06599 -4.82464,-15.09188 -11.76953,-19.82032 -6.94488,-4.72843 -16.15726,-7.46875 -26.25195,-7.46875 z m 0,8.78516 c 8.47857,0 16.08185,2.38473 21.30859,5.94336 5.22674,3.55863 7.92969,7.9809 7.92969,12.56055 0,4.57964 -2.70295,9.00191 -7.92969,12.56054 -5.22674,3.55863 -12.83002,5.94532 -21.30859,5.94532 -8.478576,0 -16.081857,-2.38669 -21.308596,-5.94532 -5.226738,-3.55863 -7.929687,-7.9809 -7.929687,-12.56054 0,-4.57965 2.702949,-9.00192 7.929687,-12.56055 5.226739,-3.55863 12.83002,-5.94336 21.308596,-5.94336 z"
                style="color:#000000;font-style:normal;font-variant:normal;font-weight:normal;font-stretch:normal;font-size:medium;line-height:normal;font-family:sans-serif;font-variant-ligatures:normal;font-variant-position:normal;font-variant-caps:normal;font-variant-numeric:normal;font-variant-alternates:normal;font-feature-settings:normal;text-indent:0;text-align:start;text-decoration:none;text-decoration-line:none;text-decoration-style:solid;text-decoration-color:#000000;letter-spacing:normal;word-spacing:normal;text-transform:none;writing-mode:lr-tb;direction:ltr;text-orientation:mixed;dominant-baseline:auto;baseline-shift:baseline;text-anchor:start;white-space:normal;shape-padding:0;clip-rule:nonzero;display:inline;overflow:visible;visibility:visible;opacity:1;isolation:auto;mix-blend-mode:normal;color-interpolation:sRGB;color-interpolation-filters:linearRGB;solid-color:#000000;solid-opacity:1;vector-effect:none;fill:#000000;fill-opacity:1;fill-rule:nonzero;stroke:none;stroke-width:8.78423977;stroke-linecap:butt;stroke-linejoin:miter;stroke-miterlimit:4;stroke-dasharray:none;stroke-dashoffset:0;stroke-opacity:1;color-rendering:auto;image-rendering:auto;shape-rendering:auto;text-rendering:auto;enable-background:accumulate"/>
        <path
                id="ellipse5395"
                d="m 105.45508,105.08398 c -24.201136,0 -46.164698,5.63197 -62.412111,15.05274 -16.247414,9.42077 -27.126953,23.0305 -27.126953,38.71094 0,15.68043 10.879539,29.29016 27.126953,38.71093 16.247413,9.42077 38.210975,15.05274 62.412111,15.05274 24.20113,0 46.16469,-5.63197 62.41211,-15.05274 16.24741,-9.42077 27.1289,-23.0305 27.1289,-38.71093 0,-15.68044 -10.88149,-29.29017 -27.1289,-38.71094 -16.24742,-9.42077 -38.21098,-15.05274 -62.41211,-15.05274 z m 0,8.78516 c 22.8248,0 43.43576,5.41898 58.00586,13.86719 14.57009,8.44821 22.75,19.52462 22.75,31.11133 0,11.5867 -8.17991,22.66312 -22.75,31.11132 -14.5701,8.44821 -35.18106,13.86914 -58.00586,13.86914 -22.824802,0 -43.435765,-5.42093 -58.005861,-13.86914 -14.570096,-8.4482 -22.75,-19.52462 -22.75,-31.11132 0,-11.58671 8.179904,-22.66312 22.75,-31.11133 14.570096,-8.44821 35.181059,-13.86719 58.005861,-13.86719 z"
                style="color:#000000;font-style:normal;font-variant:normal;font-weight:normal;font-stretch:normal;font-size:medium;line-height:normal;font-family:sans-serif;font-variant-ligatures:normal;font-variant-position:normal;font-variant-caps:normal;font-variant-numeric:normal;font-variant-alternates:normal;font-feature-settings:normal;text-indent:0;text-align:start;text-decoration:none;text-decoration-line:none;text-decoration-style:solid;text-decoration-color:#000000;letter-spacing:normal;word-spacing:normal;text-transform:none;writing-mode:lr-tb;direction:ltr;text-orientation:mixed;dominant-baseline:auto;baseline-shift:baseline;text-anchor:start;white-space:normal;shape-padding:0;clip-rule:nonzero;display:inline;overflow:visible;visibility:visible;opacity:1;isolation:auto;mix-blend-mode:normal;color-interpolation:sRGB;color-interpolation-filters:linearRGB;solid-color:#000000;solid-opacity:1;vector-effect:none;fill:#000000;fill-opacity:1;fill-rule:nonzero;stroke:none;stroke-width:8.78423977;stroke-linecap:butt;stroke-linejoin:miter;stroke-miterlimit:4;stroke-dasharray:none;stroke-dashoffset:0;stroke-opacity:1;color-rendering:auto;image-rendering:auto;shape-rendering:auto;text-rendering:auto;enable-background:accumulate"/>
    </g>
</svg>
